<?xml version="1.0" encoding="UTF-8"?>
<!DOCTYPE svg PUBLIC "-//W3C//DTD SVG 1.1//EN" "http://www.w3.org/Graphics/SVG/1.1/DTD/svg11.dtd">
<svg version="1.1" xmlns="http://www.w3.org/2000/svg" xmlns:xlink="http://www.w3.org/1999/xlink" x="0" y="0" width="649" height="199" viewBox="0, 0, 649, 199">
  <g id="Layer_1" transform="translate(9, 9)">
    <g>
      <path d="M0.5,0.5 L141.5,0.5 L141.5,44.5 L0.5,44.5 L0.5,0.5 z" fill="#FFFFFF"/>
      <path d="M0.5,0.5 L141.5,0.5 L141.5,44.5 L0.5,44.5 L0.5,0.5 z" fill-opacity="0" stroke="#000000" stroke-width="4"/>
    </g>
    <text transform="matrix(1, 0, 0, 1, 70.5, 22)">
      <tspan x="-25.546" y="4.5" font-family="Geneva" font-size="14" fill="#000000">Actions</tspan>
    </text>
    <g>
      <path d="M245.5,0.5 L386.5,0.5 L386.5,44.5 L245.5,44.5 L245.5,0.5 z" fill="#FFFFFF"/>
      <path d="M245.5,0.5 L386.5,0.5 L386.5,44.5 L245.5,44.5 L245.5,0.5 z" fill-opacity="0" stroke="#000000" stroke-width="4"/>
    </g>
    <text transform="matrix(1, 0, 0, 1, 315.5, 22)">
      <tspan x="-28.546" y="4.5" font-family="Geneva" font-size="14" fill="#000000">Reducer</tspan>
    </text>
    <g>
      <path d="M490.5,0.5 L631.5,0.5 L631.5,44.5 L490.5,44.5 L490.5,0.5 z" fill="#FFFFFF"/>
      <path d="M490.5,0.5 L631.5,0.5 L631.5,44.5 L490.5,44.5 L490.5,0.5 z" fill-opacity="0" stroke="#000000" stroke-width="4"/>
    </g>
    <text transform="matrix(1, 0, 0, 1, 560.5, 22)">
      <tspan x="-35.137" y="4.75" font-family="Geneva" font-size="14" fill="#000000">New State</tspan>
    </text>
    <g>
      <path d="M245.5,137.5 L386.5,137.5 L386.5,181.5 L245.5,181.5 L245.5,137.5 z" fill="#FFFFFF"/>
      <path d="M245.5,137.5 L386.5,137.5 L386.5,181.5 L245.5,181.5 L245.5,137.5 z" fill-opacity="0" stroke="#000000" stroke-width="4"/>
    </g>
    <text transform="matrix(1, 0, 0, 1, 315.5, 159.25)">
      <tspan x="-16.225" y="4.5" font-family="Geneva" font-size="14" fill="#000000">View</tspan>
    </text>
    <g>
      <path d="M141.5,24.5 L233.7,24.5" fill-opacity="0" stroke="#000000" stroke-width="2"/>
      <path d="M233.7,28.1 L243.3,24.5 L233.7,20.9 z" fill="#000000" fill-opacity="1" stroke="#000000" stroke-width="2" stroke-opacity="1"/>
    </g>
    <g>
      <path d="M386.5,24.5 L478.7,24.5" fill-opacity="0" stroke="#000000" stroke-width="2"/>
      <path d="M478.7,28.1 L488.3,24.5 L478.7,20.9 z" fill="#000000" fill-opacity="1" stroke="#000000" stroke-width="2" stroke-opacity="1"/>
    </g>
    <path d="M559.5,44.5 L559.5,150.25" fill-opacity="0" stroke="#000000" stroke-width="2"/>
    <g>
      <path d="M559.5,150.25 L398.3,150.25" fill-opacity="0" stroke="#000000" stroke-width="2"/>
      <path d="M398.3,146.65 L388.7,150.25 L398.3,153.85 z" fill="#000000" fill-opacity="1" stroke="#000000" stroke-width="2" stroke-opacity="1"/>
    </g>
    <path d="M240.5,150.25 L67.5,150.25" fill-opacity="0" stroke="#000000" stroke-width="2"/>
    <g>
      <path d="M67.5,56.3 L67.5,150.25" fill-opacity="0" stroke="#000000" stroke-width="2"/>
      <path d="M71.1,56.3 L67.5,46.7 L63.9,56.3 z" fill="#000000" fill-opacity="1" stroke="#000000" stroke-width="2" stroke-opacity="1"/>
    </g>
  </g>
</svg>
